# xmcd
#
# Track frame offsets:
# 150
# 13295
# 28782
# 30272
# 50567
# 51702
# 68982
# 70197
# 89452
# 90654
# 108157
# 109282
# 130687
# 131290
# 132365
# 147455
# 148477
# 166620
# 167425
# 186715
# 187665
# 208272
# 209215
# 236134
# 237220
# 254465
# 254950
#
# Disc length: 3424 seconds
#
#
# Revision: 0
# Processed by: cddbd v1.5.2PL0 Copyright (c) Steve Scherf et al.
# Submitted via: FreeRIP 2.951 
#
DISCID=a90d5e1b
DTITLE=VARIOS - Sua Magestade "O Cururu"
DYEAR=2000
DGENRE=CURURU
TTITLE0=
TTITLE1=
TTITLE2=
TTITLE3=
TTITLE4=
TTITLE5=
TTITLE6=
TTITLE7=
TTITLE8=
TTITLE9=
TTITLE10=
TTITLE11=
TTITLE12=
TTITLE13=Inicio da segunda Rodada
TTITLE14=Zico Moreira
TTITLE15=Aplausos e Locução
TTITLE16=Gusto Belo
TTITLE17=Aplausos e Locução
TTITLE18=Cido Garoto
TTITLE19=Aplausos e Locução
TTITLE20=Dito Carrara
TTITLE21=Aplausos e Locução
TTITLE22=Horacio Neto
TTITLE23=Aplausos e Locução
TTITLE24=Dule Salgado
TTITLE25=Aplausos
TTITLE26=Encerramento
EXTD=
EXTT0=
EXTT1=
EXTT2=
EXTT3=
EXTT4=
EXTT5=
EXTT6=
EXTT7=
EXTT8=
EXTT9=
EXTT10=
EXTT11=
EXTT12=
EXTT13=Narciso Pierone
EXTT14=Rima - St. Catarina
EXTT15=Narciso Pierone
EXTT16=Rima - N. Senhor
EXTT17=Narciso Pierone
EXTT18=Rima - São Benedito
EXTT19=Narciso Pierone
EXTT20=Rima - St. Rei
EXTT21=Narciso Pierone
EXTT22=Rima - Do A
EXTT23=Narciso Pierone
EXTT24=Rima - São João
EXTT25=Aplausos
EXTT26=Encerramento
PLAYORDER=
